<svg xmlns="http://www.w3.org/2000/svg" style="display:none">
<symbol id="arrow-left-right" viewBox="0 0 24 24" fill="none" stroke="currentColor" stroke-width="1.75" stroke-linecap="round" stroke-linejoin="round"><path d="M8 3 4 7l4 4" /> <path d="M4 7h16" /> <path d="m16 21 4-4-4-4" /> <path d="M20 17H4" /></symbol>
<symbol id="arrow-left" viewBox="0 0 24 24" fill="none" stroke="currentColor" stroke-width="1.75" stroke-linecap="round" stroke-linejoin="round"><path d="m12 19-7-7 7-7" /> <path d="M19 12H5" /></symbol>
<symbol id="arrow-right" viewBox="0 0 24 24" fill="none" stroke="currentColor" stroke-width="1.75" stroke-linecap="round" stroke-linejoin="round"><path d="M5 12h14" /> <path d="m12 5 7 7-7 7" /></symbol>
<symbol id="banknote" viewBox="0 0 24 24" fill="none" stroke="currentColor" stroke-width="1.75" stroke-linecap="round" stroke-linejoin="round"><rect width="20" height="12" x="2" y="6" rx="2" /> <circle cx="12" cy="12" r="2" /> <path d="M6 12h.01M18 12h.01" /></symbol>
<symbol id="beef" viewBox="0 0 24 24" fill="none" stroke="currentColor" stroke-width="1.75" stroke-linecap="round" stroke-linejoin="round"><path d="M16.4 13.7A6.5 6.5 0 1 0 6.28 6.6c-1.1 3.13-.78 3.9-3.18 6.08A3 3 0 0 0 5 18c4 0 8.4-1.8 11.4-4.3" /> <path d="m18.5 6 1.754 3.5a6.48 6.48 0 0 1-1.854 8.2C15.4 20.2 11 22 7 22a3 3 0 0 1-2.68-1.66L2.4 16.5" /> <circle cx="12.5" cy="8.5" r="2.5" /></symbol>
<symbol id="building-2" viewBox="0 0 24 24" fill="none" stroke="currentColor" stroke-width="1.75" stroke-linecap="round" stroke-linejoin="round"><path d="M10 12h4" /> <path d="M10 8h4" /> <path d="M14 21v-3a2 2 0 0 0-4 0v3" /> <path d="M6 10H4a2 2 0 0 0-2 2v7a2 2 0 0 0 2 2h16a2 2 0 0 0 2-2V9a2 2 0 0 0-2-2h-2" /> <path d="M6 21V5a2 2 0 0 1 2-2h8a2 2 0 0 1 2 2v16" /></symbol>
<symbol id="calendar" viewBox="0 0 24 24" fill="none" stroke="currentColor" stroke-width="1.75" stroke-linecap="round" stroke-linejoin="round"><path d="M8 2v3" /> <path d="M16 2v3" /> <rect x="3" y="3" width="18" height="18" rx="2" /> <path d="M3 9h18" /></symbol>
<symbol id="check" viewBox="0 0 24 24" fill="none" stroke="currentColor" stroke-width="1.75" stroke-linecap="round" stroke-linejoin="round"><path d="M20 6 9 17l-5-5" /></symbol>
<symbol id="chevron-down" viewBox="0 0 24 24" fill="none" stroke="currentColor" stroke-width="1.75" stroke-linecap="round" stroke-linejoin="round"><path d="m6 9 6 6 6-6" /></symbol>
<symbol id="chevron-left" viewBox="0 0 24 24" fill="none" stroke="currentColor" stroke-width="1.75" stroke-linecap="round" stroke-linejoin="round"><path d="m15 18-6-6 6-6" /></symbol>
<symbol id="chevron-right" viewBox="0 0 24 24" fill="none" stroke="currentColor" stroke-width="1.75" stroke-linecap="round" stroke-linejoin="round"><path d="m9 18 6-6-6-6" /></symbol>
<symbol id="circle-check" viewBox="0 0 24 24" fill="none" stroke="currentColor" stroke-width="1.75" stroke-linecap="round" stroke-linejoin="round"><circle cx="12" cy="12" r="10" /> <path d="m16 9-5.5 5.5L8 12" /></symbol>
<symbol id="circle-x" viewBox="0 0 24 24" fill="none" stroke="currentColor" stroke-width="1.75" stroke-linecap="round" stroke-linejoin="round"><circle cx="12" cy="12" r="10" /> <path d="m15 9-6 6" /> <path d="m9 9 6 6" /></symbol>
<symbol id="clock" viewBox="0 0 24 24" fill="none" stroke="currentColor" stroke-width="1.75" stroke-linecap="round" stroke-linejoin="round"><circle cx="12" cy="12" r="10" /> <path d="M12 6v6l4 2" /></symbol>
<symbol id="download" viewBox="0 0 24 24" fill="none" stroke="currentColor" stroke-width="1.75" stroke-linecap="round" stroke-linejoin="round"><path d="M12 15V3" /> <path d="M21 15v4a2 2 0 0 1-2 2H5a2 2 0 0 1-2-2v-4" /> <path d="m7 10 5 5 5-5" /></symbol>
<symbol id="ellipsis" viewBox="0 0 24 24" fill="none" stroke="currentColor" stroke-width="1.75" stroke-linecap="round" stroke-linejoin="round"><circle cx="12" cy="12" r="1" /> <circle cx="19" cy="12" r="1" /> <circle cx="5" cy="12" r="1" /></symbol>
<symbol id="external-link" viewBox="0 0 24 24" fill="none" stroke="currentColor" stroke-width="1.75" stroke-linecap="round" stroke-linejoin="round"><path d="M15 3h6v6" /> <path d="M10 14 21 3" /> <path d="M18 13v6a2 2 0 0 1-2 2H5a2 2 0 0 1-2-2V8a2 2 0 0 1 2-2h6" /></symbol>
<symbol id="eye" viewBox="0 0 24 24" fill="none" stroke="currentColor" stroke-width="1.75" stroke-linecap="round" stroke-linejoin="round"><path d="M2.062 12.348a1 1 0 0 1 0-.696 10.75 10.75 0 0 1 19.876 0 1 1 0 0 1 0 .696 10.75 10.75 0 0 1-19.876 0" /> <circle cx="12" cy="12" r="3" /></symbol>
<symbol id="file-bar-chart" viewBox="0 0 24 24" fill="none" stroke="currentColor" stroke-width="1.75" stroke-linecap="round" stroke-linejoin="round"><path d="M6 22a2 2 0 0 1-2-2V4a2 2 0 0 1 2-2h8a2.4 2.4 0 0 1 1.704.706l3.588 3.588A2.4 2.4 0 0 1 20 8v12a2 2 0 0 1-2 2z" /> <path d="M14 2v5a1 1 0 0 0 1 1h5" /> <path d="M8 18v-2" /> <path d="M12 18v-4" /> <path d="M16 18v-6" /></symbol>
<symbol id="file-down" viewBox="0 0 24 24" fill="none" stroke="currentColor" stroke-width="1.75" stroke-linecap="round" stroke-linejoin="round"><path d="M6 22a2 2 0 0 1-2-2V4a2 2 0 0 1 2-2h8a2.4 2.4 0 0 1 1.704.706l3.588 3.588A2.4 2.4 0 0 1 20 8v12a2 2 0 0 1-2 2z" /> <path d="M14 2v5a1 1 0 0 0 1 1h5" /> <path d="M12 18v-6" /> <path d="m9 15 3 3 3-3" /></symbol>
<symbol id="file-text" viewBox="0 0 24 24" fill="none" stroke="currentColor" stroke-width="1.75" stroke-linecap="round" stroke-linejoin="round"><path d="M6 22a2 2 0 0 1-2-2V4a2 2 0 0 1 2-2h8a2.4 2.4 0 0 1 1.704.706l3.588 3.588A2.4 2.4 0 0 1 20 8v12a2 2 0 0 1-2 2z" /> <path d="M14 2v5a1 1 0 0 0 1 1h5" /> <path d="M10 9H8" /> <path d="M16 13H8" /> <path d="M16 17H8" /></symbol>
<symbol id="filter" viewBox="0 0 24 24" fill="none" stroke="currentColor" stroke-width="1.75" stroke-linecap="round" stroke-linejoin="round"><path d="M10 20a1 1 0 0 0 .553.895l2 1A1 1 0 0 0 14 21v-7a2 2 0 0 1 .517-1.341L21.74 4.67A1 1 0 0 0 21 3H3a1 1 0 0 0-.742 1.67l7.225 7.989A2 2 0 0 1 10 14z" /></symbol>
<symbol id="git-compare" viewBox="0 0 24 24" fill="none" stroke="currentColor" stroke-width="1.75" stroke-linecap="round" stroke-linejoin="round"><circle cx="18" cy="18" r="3" /> <circle cx="6" cy="6" r="3" /> <path d="M13 6h3a2 2 0 0 1 2 2v7" /> <path d="M11 18H8a2 2 0 0 1-2-2V9" /></symbol>
<symbol id="grid-2x2" viewBox="0 0 24 24" fill="none" stroke="currentColor" stroke-width="1.75" stroke-linecap="round" stroke-linejoin="round"><path d="M12 3v18" /> <path d="M3 12h18" /> <rect x="3" y="3" width="18" height="18" rx="2" /></symbol>
<symbol id="history" viewBox="0 0 24 24" fill="none" stroke="currentColor" stroke-width="1.75" stroke-linecap="round" stroke-linejoin="round"><path d="M3 12a9 9 0 1 0 9-9 9.75 9.75 0 0 0-6.74 2.74L3 8" /> <path d="M3 3v5h5" /> <path d="M12 7v5l4 2" /></symbol>
<symbol id="house" viewBox="0 0 24 24" fill="none" stroke="currentColor" stroke-width="1.75" stroke-linecap="round" stroke-linejoin="round"><path d="M15 21v-8a1 1 0 0 0-1-1h-4a1 1 0 0 0-1 1v8" /> <path d="M3 10a2 2 0 0 1 .709-1.528l7-6a2 2 0 0 1 2.582 0l7 6A2 2 0 0 1 21 10v9a2 2 0 0 1-2 2H5a2 2 0 0 1-2-2z" /></symbol>
<symbol id="info" viewBox="0 0 24 24" fill="none" stroke="currentColor" stroke-width="1.75" stroke-linecap="round" stroke-linejoin="round"><circle cx="12" cy="12" r="10" /> <path d="M12 16v-4" /> <path d="M12 8h.01" /></symbol>
<symbol id="landmark" viewBox="0 0 24 24" fill="none" stroke="currentColor" stroke-width="1.75" stroke-linecap="round" stroke-linejoin="round"><path d="M10 18v-7" /> <path d="M11.119 2.205a2 2 0 0 1 1.762 0l7.84 3.846A.5.5 0 0 1 20.5 7h-17a.5.5 0 0 1-.22-.949z" /> <path d="M14 18v-7" /> <path d="M18 18v-7" /> <path d="M3 22h18" /> <path d="M6 18v-7" /></symbol>
<symbol id="layers" viewBox="0 0 24 24" fill="none" stroke="currentColor" stroke-width="1.75" stroke-linecap="round" stroke-linejoin="round"><path d="M12.83 2.18a2 2 0 0 0-1.66 0L2.6 6.08a1 1 0 0 0 0 1.83l8.58 3.91a2 2 0 0 0 1.66 0l8.58-3.9a1 1 0 0 0 0-1.83z" /> <path d="M2 12a1 1 0 0 0 .58.91l8.6 3.91a2 2 0 0 0 1.65 0l8.58-3.9A1 1 0 0 0 22 12" /> <path d="M2 17a1 1 0 0 0 .58.91l8.6 3.91a2 2 0 0 0 1.65 0l8.58-3.9A1 1 0 0 0 22 17" /></symbol>
<symbol id="layout-dashboard" viewBox="0 0 24 24" fill="none" stroke="currentColor" stroke-width="1.75" stroke-linecap="round" stroke-linejoin="round"><rect width="7" height="9" x="3" y="3" rx="1" /> <rect width="7" height="5" x="14" y="3" rx="1" /> <rect width="7" height="9" x="14" y="12" rx="1" /> <rect width="7" height="5" x="3" y="16" rx="1" /></symbol>
<symbol id="list-checks" viewBox="0 0 24 24" fill="none" stroke="currentColor" stroke-width="1.75" stroke-linecap="round" stroke-linejoin="round"><path d="M13 5h8" /> <path d="M13 12h8" /> <path d="M13 19h8" /> <path d="m3 17 2 2 4-4" /> <path d="m3 7 2 2 4-4" /></symbol>
<symbol id="lock" viewBox="0 0 24 24" fill="none" stroke="currentColor" stroke-width="1.75" stroke-linecap="round" stroke-linejoin="round"><rect width="18" height="11" x="3" y="11" rx="2" ry="2" /> <path d="M7 11V7a5 5 0 0 1 10 0v4" /></symbol>
<symbol id="log-out" viewBox="0 0 24 24" fill="none" stroke="currentColor" stroke-width="1.75" stroke-linecap="round" stroke-linejoin="round"><path d="m16 17 5-5-5-5" /> <path d="M21 12H9" /> <path d="M9 21H5a2 2 0 0 1-2-2V5a2 2 0 0 1 2-2h4" /></symbol>
<symbol id="map-pin" viewBox="0 0 24 24" fill="none" stroke="currentColor" stroke-width="1.75" stroke-linecap="round" stroke-linejoin="round"><path d="M20 10c0 4.993-5.539 10.193-7.399 11.799a1 1 0 0 1-1.202 0C9.539 20.193 4 14.993 4 10a8 8 0 0 1 16 0" /> <circle cx="12" cy="10" r="3" /></symbol>
<symbol id="map" viewBox="0 0 24 24" fill="none" stroke="currentColor" stroke-width="1.75" stroke-linecap="round" stroke-linejoin="round"><path d="M14.106 5.553a2 2 0 0 0 1.788 0l3.659-1.83A1 1 0 0 1 21 4.619v12.764a1 1 0 0 1-.553.894l-4.553 2.277a2 2 0 0 1-1.788 0l-4.212-2.106a2 2 0 0 0-1.788 0l-3.659 1.83A1 1 0 0 1 3 19.381V6.618a1 1 0 0 1 .553-.894l4.553-2.277a2 2 0 0 1 1.788 0z" /> <path d="M15 5.764v15" /> <path d="M9 3.236v15" /></symbol>
<symbol id="menu" viewBox="0 0 24 24" fill="none" stroke="currentColor" stroke-width="1.75" stroke-linecap="round" stroke-linejoin="round"><path d="M4 5h16" /> <path d="M4 12h16" /> <path d="M4 19h16" /></symbol>
<symbol id="package" viewBox="0 0 24 24" fill="none" stroke="currentColor" stroke-width="1.75" stroke-linecap="round" stroke-linejoin="round"><path d="M11 21.73a2 2 0 0 0 2 0l7-4A2 2 0 0 0 21 16V8a2 2 0 0 0-1-1.73l-7-4a2 2 0 0 0-2 0l-7 4A2 2 0 0 0 3 8v8a2 2 0 0 0 1 1.73z" /> <path d="M12 22V12" /> <polyline points="3.29 7 12 12 20.71 7" /> <path d="m7.5 4.27 9 5.15" /></symbol>
<symbol id="paperclip" viewBox="0 0 24 24" fill="none" stroke="currentColor" stroke-width="1.75" stroke-linecap="round" stroke-linejoin="round"><path d="m16 6-8.414 8.586a2 2 0 0 0 2.829 2.829l8.414-8.586a4 4 0 1 0-5.657-5.657l-8.379 8.551a6 6 0 1 0 8.485 8.485l8.379-8.551" /></symbol>
<symbol id="pencil" viewBox="0 0 24 24" fill="none" stroke="currentColor" stroke-width="1.75" stroke-linecap="round" stroke-linejoin="round"><path d="M21.174 6.812a1 1 0 0 0-3.986-3.987L3.842 16.174a2 2 0 0 0-.5.83l-1.321 4.352a.5.5 0 0 0 .623.622l4.353-1.32a2 2 0 0 0 .83-.497z" /> <path d="m15 5 4 4" /></symbol>
<symbol id="plus" viewBox="0 0 24 24" fill="none" stroke="currentColor" stroke-width="1.75" stroke-linecap="round" stroke-linejoin="round"><path d="M5 12h14" /> <path d="M12 5v14" /></symbol>
<symbol id="receipt" viewBox="0 0 24 24" fill="none" stroke="currentColor" stroke-width="1.75" stroke-linecap="round" stroke-linejoin="round"><path d="M12 17V7" /> <path d="M16 8h-6a2 2 0 0 0 0 4h4a2 2 0 0 1 0 4H8" /> <path d="M4 3a1 1 0 0 1 1-1 1.3 1.3 0 0 1 .7.2l.933.6a1.3 1.3 0 0 0 1.4 0l.934-.6a1.3 1.3 0 0 1 1.4 0l.933.6a1.3 1.3 0 0 0 1.4 0l.933-.6a1.3 1.3 0 0 1 1.4 0l.934.6a1.3 1.3 0 0 0 1.4 0l.933-.6A1.3 1.3 0 0 1 19 2a1 1 0 0 1 1 1v18a1 1 0 0 1-1 1 1.3 1.3 0 0 1-.7-.2l-.933-.6a1.3 1.3 0 0 0-1.4 0l-.934.6a1.3 1.3 0 0 1-1.4 0l-.933-.6a1.3 1.3 0 0 0-1.4 0l-.933.6a1.3 1.3 0 0 1-1.4 0l-.934-.6a1.3 1.3 0 0 0-1.4 0l-.933.6a1.3 1.3 0 0 1-.7.2 1 1 0 0 1-1-1z" /></symbol>
<symbol id="rotate-ccw" viewBox="0 0 24 24" fill="none" stroke="currentColor" stroke-width="1.75" stroke-linecap="round" stroke-linejoin="round"><path d="M3 12a9 9 0 1 0 9-9 9.75 9.75 0 0 0-6.74 2.74L3 8" /> <path d="M3 3v5h5" /></symbol>
<symbol id="scale" viewBox="0 0 24 24" fill="none" stroke="currentColor" stroke-width="1.75" stroke-linecap="round" stroke-linejoin="round"><path d="M12 3v18" /> <path d="m19 8 3 8a5 5 0 0 1-6 0zV7" /> <path d="M3 7h1a17 17 0 0 0 8-2 17 17 0 0 0 8 2h1" /> <path d="m5 8 3 8a5 5 0 0 1-6 0zV7" /> <path d="M7 21h10" /></symbol>
<symbol id="search" viewBox="0 0 24 24" fill="none" stroke="currentColor" stroke-width="1.75" stroke-linecap="round" stroke-linejoin="round"><path d="m21 21-4.34-4.34" /> <circle cx="11" cy="11" r="8" /></symbol>
<symbol id="settings" viewBox="0 0 24 24" fill="none" stroke="currentColor" stroke-width="1.75" stroke-linecap="round" stroke-linejoin="round"><path d="M9.671 4.136a2.34 2.34 0 0 1 4.659 0 2.34 2.34 0 0 0 3.319 1.915 2.34 2.34 0 0 1 2.33 4.033 2.34 2.34 0 0 0 0 3.831 2.34 2.34 0 0 1-2.33 4.033 2.34 2.34 0 0 0-3.319 1.915 2.34 2.34 0 0 1-4.659 0 2.34 2.34 0 0 0-3.32-1.915 2.34 2.34 0 0 1-2.33-4.033 2.34 2.34 0 0 0 0-3.831A2.34 2.34 0 0 1 6.35 6.051a2.34 2.34 0 0 0 3.319-1.915" /> <circle cx="12" cy="12" r="3" /></symbol>
<symbol id="shield-check" viewBox="0 0 24 24" fill="none" stroke="currentColor" stroke-width="1.75" stroke-linecap="round" stroke-linejoin="round"><path d="M20 13c0 5-3.5 7.5-7.66 8.95a1 1 0 0 1-.67-.01C7.5 20.5 4 18 4 13V6a1 1 0 0 1 1-1c2 0 4.5-1.2 6.24-2.72a1.17 1.17 0 0 1 1.52 0C14.51 3.81 17 5 19 5a1 1 0 0 1 1 1z" /> <path d="m9 12 2 2 4-4" /></symbol>
<symbol id="shopping-cart" viewBox="0 0 24 24" fill="none" stroke="currentColor" stroke-width="1.75" stroke-linecap="round" stroke-linejoin="round"><path d="m2.05 2.05 1.099-.028a1 1 0 0 1 1.008.815l2.69 14.347A1 1 0 0 0 7.83 18H18" /> <path d="M4.563 5h16.435a1 1 0 0 1 .981 1.204l-1.026 6.226A2 2 0 0 1 18.962 14H6.25" /> <circle cx="18" cy="20" r="2" /> <circle cx="8" cy="20" r="2" /></symbol>
<symbol id="sliders-horizontal" viewBox="0 0 24 24" fill="none" stroke="currentColor" stroke-width="1.75" stroke-linecap="round" stroke-linejoin="round"><path d="M10 5H3" /> <path d="M12 19H3" /> <path d="M14 3v4" /> <path d="M16 17v4" /> <path d="M21 12h-9" /> <path d="M21 19h-5" /> <path d="M21 5h-7" /> <path d="M8 10v4" /> <path d="M8 12H3" /></symbol>
<symbol id="tag" viewBox="0 0 24 24" fill="none" stroke="currentColor" stroke-width="1.75" stroke-linecap="round" stroke-linejoin="round"><path d="M12.586 2.586A2 2 0 0 0 11.172 2H4a2 2 0 0 0-2 2v7.172a2 2 0 0 0 .586 1.414l8.704 8.704a2.426 2.426 0 0 0 3.42 0l6.58-6.58a2.426 2.426 0 0 0 0-3.42z" /> <circle cx="7.5" cy="7.5" r=".5" fill="currentColor" /></symbol>
<symbol id="trash-2" viewBox="0 0 24 24" fill="none" stroke="currentColor" stroke-width="1.75" stroke-linecap="round" stroke-linejoin="round"><path d="M10 11v6" /> <path d="M14 11v6" /> <path d="M19 6v14a2 2 0 0 1-2 2H7a2 2 0 0 1-2-2V6" /> <path d="M3 6h18" /> <path d="M8 6V4a2 2 0 0 1 2-2h4a2 2 0 0 1 2 2v2" /></symbol>
<symbol id="triangle-alert" viewBox="0 0 24 24" fill="none" stroke="currentColor" stroke-width="1.75" stroke-linecap="round" stroke-linejoin="round"><path d="m21.73 18-8-14a2 2 0 0 0-3.48 0l-8 14A2 2 0 0 0 4 21h16a2 2 0 0 0 1.73-3" /> <path d="M12 9v4" /> <path d="M12 17h.01" /></symbol>
<symbol id="upload" viewBox="0 0 24 24" fill="none" stroke="currentColor" stroke-width="1.75" stroke-linecap="round" stroke-linejoin="round"><path d="M12 3v12" /> <path d="m17 8-5-5-5 5" /> <path d="M21 15v4a2 2 0 0 1-2 2H5a2 2 0 0 1-2-2v-4" /></symbol>
<symbol id="users" viewBox="0 0 24 24" fill="none" stroke="currentColor" stroke-width="1.75" stroke-linecap="round" stroke-linejoin="round"><path d="M16 21v-2a4 4 0 0 0-4-4H6a4 4 0 0 0-4 4v2" /> <path d="M16 3.128a4 4 0 0 1 0 7.744" /> <path d="M22 21v-2a4 4 0 0 0-3-3.87" /> <circle cx="9" cy="7" r="4" /></symbol>
<symbol id="wallet" viewBox="0 0 24 24" fill="none" stroke="currentColor" stroke-width="1.75" stroke-linecap="round" stroke-linejoin="round"><path d="M19 7V4a1 1 0 0 0-1-1H5a2 2 0 0 0 0 4h15a1 1 0 0 1 1 1v4h-3a2 2 0 0 0 0 4h3a1 1 0 0 0 1-1v-2a1 1 0 0 0-1-1" /> <path d="M3 5v14a2 2 0 0 0 2 2h15a1 1 0 0 0 1-1v-4" /></symbol>
<symbol id="x" viewBox="0 0 24 24" fill="none" stroke="currentColor" stroke-width="1.75" stroke-linecap="round" stroke-linejoin="round"><path d="M18 6 6 18" /> <path d="m6 6 12 12" /></symbol>
<symbol id="truck" viewBox="0 0 24 24" fill="none" stroke="currentColor" stroke-width="1.75" stroke-linecap="round" stroke-linejoin="round"><path d="M14 18V6a2 2 0 0 0-2-2H4a2 2 0 0 0-2 2v11a1 1 0 0 0 1 1h2" /> <path d="M15 18H9" /> <path d="M19 18h2a1 1 0 0 0 1-1v-3.65a1 1 0 0 0-.22-.624l-3.48-4.35A1 1 0 0 0 17.52 8H14" /> <circle cx="17" cy="18" r="2" /> <circle cx="7" cy="18" r="2" /></symbol>
<symbol id="percent" viewBox="0 0 24 24" fill="none" stroke="currentColor" stroke-width="1.75" stroke-linecap="round" stroke-linejoin="round"><line x1="19" x2="5" y1="5" y2="19" /> <circle cx="6.5" cy="6.5" r="2.5" /> <circle cx="17.5" cy="17.5" r="2.5" /></symbol>
<symbol id="clipboard-check" viewBox="0 0 24 24" fill="none" stroke="currentColor" stroke-width="1.75" stroke-linecap="round" stroke-linejoin="round"><rect width="8" height="4" x="8" y="2" rx="1" ry="1" /> <path d="M16 4h2a2 2 0 0 1 2 2v14a2 2 0 0 1-2 2H6a2 2 0 0 1-2-2V6a2 2 0 0 1 2-2h2" /> <path d="m9 14 2 2 4-4" /></symbol>
<symbol id="trending-up" viewBox="0 0 24 24" fill="none" stroke="currentColor" stroke-width="1.75" stroke-linecap="round" stroke-linejoin="round"><polyline points="22 7 13.5 15.5 8.5 10.5 2 17" /> <polyline points="16 7 22 7 22 13" /></symbol>
<symbol id="circle-dollar-sign" viewBox="0 0 24 24" fill="none" stroke="currentColor" stroke-width="1.75" stroke-linecap="round" stroke-linejoin="round"><circle cx="12" cy="12" r="10" /> <path d="M16 8h-6a2 2 0 1 0 0 4h4a2 2 0 1 1 0 4H8" /> <path d="M12 18V6" /></symbol>
<symbol id="coins" viewBox="0 0 24 24" fill="none" stroke="currentColor" stroke-width="1.75" stroke-linecap="round" stroke-linejoin="round"><circle cx="8" cy="8" r="6" /> <path d="M18.09 10.37A6 6 0 1 1 10.34 18" /> <path d="M7 6h1v4" /> <path d="m16.71 13.88.7.71-2.82 2.82" /></symbol>
<symbol id="database" viewBox="0 0 24 24" fill="none" stroke="currentColor" stroke-width="1.75" stroke-linecap="round" stroke-linejoin="round"><ellipse cx="12" cy="5" rx="9" ry="3" /> <path d="M3 5V19A9 3 0 0 0 21 19V5" /> <path d="M3 12A9 3 0 0 0 21 12" /></symbol>
<symbol id="circle-user" viewBox="0 0 24 24" fill="none" stroke="currentColor" stroke-width="1.75" stroke-linecap="round" stroke-linejoin="round"><circle cx="12" cy="12" r="10" /> <circle cx="12" cy="10" r="3" /> <path d="M7 20.662V19a2 2 0 0 1 2-2h6a2 2 0 0 1 2 2v1.662" /></symbol>
</svg>